/* XPM */

static char *
data[] = {
  /* width height num_colors chars_per_pixel x_hot y_hot */
  "120 94 42 1 0 0",

  /* colors */
  ". s symbol1 c #000000 m black",
  "# s symbol2 c #ffffff m white",
  "a s symbol3 c #002f5f m black",
  "b s symbol4 c #3f3f3f m black",
  "c s symbol5 c #7f7f7f m black",
  "d s symbol6 c #cc0000 m black",
  "e s symbol7 c #bfbfbf m white",
  "f s symbol8 c #dfdfdf m white",
  "g s symbol9 c #6f6f6f m black",
  "h s symbol10 c #0f0f0f m black",
  "i s symbol11 c #2f2f2f m black",
  "j s symbol12 c #1f1f1f m black",
  "k s symbol13 c #9f9f9f m white",
  "l s symbol14 c #4f4f4f m black",
  "m s symbol15 c #cfcfcf m white",
  "n s symbol16 c #8f8f8f m white",
  "o s symbol17 c #afafaf m white",
  "p s symbol18 c #5f5f5f m black",
  "q s symbol19 c #000f2f m black",
  "r s symbol20 c #001f4f m black",
  "s s symbol21 c #cf0f0f m black",
  "t s symbol22 c #001f3f m black",
  "u s symbol23 c #f2bfbf m white",
  "v s symbol24 c #f8dfdf m white",
  "w s symbol25 c #d83f3f m black",
  "x s symbol26 c #e67f7f m white",
  "y s symbol27 c #d11f1f m black",
  "z s symbol28 c #000f1f m black",
  "A s symbol29 c #df5f5f m white",
  "B s symbol30 c #00000f m black",
  "C s symbol31 c #f6cfcf m white",
  "D s symbol32 c #ec9f9f m white",
  "E s symbol33 c #efafaf m white",
  "F s symbol34 c #e88f8f m white",
  "G s symbol35 c #d52f2f m black",
  "H s symbol36 c #e16f6f m white",
  "I s symbol37 c #dc4f4f m black",
  "J s symbol38 c #dfe5ea m white",
  "K s symbol39 c #9fb1c5 m white",
  "L s symbol40 c #2f5881 m black",
  "M s symbol41 c #1f2f8f m black",
  "N s symbol42 c #5f7f9f m black",

  /* pixels */
  "###########################################################################################c############################",
  "##########################################################################################n.e###########################",
  "####################################################################################n#####h.i###########################",
  "####################################################################################jp###k.h.c##########################",
  "###################################################################################f..n##jpo.hf#########################",
  "###############################################################################e###nlc.ko.m#b.p#########################",
  "###############################################################################jp##lo#phbb##e..e########################",
  "###############################################################################..pfh###i.k###b.be#######################",
  "############################################################DA#################ij..b####p####e...hpm####################",
  "########################################################uxx#ww#################b#p.g##########eeec.ho###################",
  "########################################################Adduww#################b##co##############mhh###################",
  "####################################################vxxxuGdsGw#################h###################c.jbl################",
  "###############################################Cu###wdddw#Gddw#################j####################ibh.j###############",
  "##############################################Ddy##FdEAddu#sdw#################io######################b.o##############",
  "##############################################uddH#DxyIydw#Cdw################eh#######################g.c##############",
  "###########################################uAx#HddC#sd#AddEGdx################ck#######################c.c##############",
  "##########################################HdddG#sdwCddGyxC#yHv################bf########gkf############p.k##############",
  "########################################uydIAdd#DddFFwAv######################.########p.if###########c.b#co############",
  "########################################wds#vdy##wds##########################.########b..j##########k.ikj.#############",
  "########################################vsdGysC##vsE##########################be##n.k##g...k#########o..chb#############",
  "#########################################FddGv################################pn##b..c#e...h########ejjmf.n#############",
  "##########################################IddC################################ol##c..h##j...e######g.c##n.m#############",
  "###########################################ydy#################################hf#m...g#o...k####ohim###bh##############",
  "###########################################CdH#################################cg##b..b##gbl###fbhn####m.l##############",
  "####################################FxE#####v#################################mb.##e..i#######nhif#####l.jge############",
  "##################################EyddsD#####################################cifgp##cbk######ehn######kaaqBhhpm#########",
  "#################################vdAEyds####################################bl###ik##########ig#####JNaaaaaaqh.c########",
  "#################################udsC#yd###################################fncf###ik#######fi.e####Naaaaaaaaar..l#######",
  "#############################CwvF#ydsxyA######################################kko##lhnm####emg##fNaaaaaaaaaaaarB.n######",
  "#############################wddsCDdddG#######################################kpqMK#ehgcm###m##Naaaaaaaaaaaaaaaa..f#####",
  "##############################yddF##uu#######################################ptaaaaN#mc######maaaaaaaaaaaataaaaaz.c#####",
  "#############################uddddGsD########################ecccccm########graaaaaaN#mm####Kaaaaaaaaaaaazaaaaaaa.h#####",
  "##############################EvGdddE#####################elhqtzbbijlk#####ltaaaaaaaaL#####KaaaaaaaaaaatjLaaaaaaaz.m####",
  "#################################FwE#####################n.taaaaqb###ohc##ptaaaaaaaaaaL###Kaaaaaaaaaaahe###Naaaaaq.e####",
  "########################################################ghaaaaaaz.m####ipgqaaaaaaaaaaaaamNaaaaaaaaaazlcpbgo#maaaat.e####",
  "##########################CF###########################bczaaaaqiemcm####bzaaaaaaaaaaaaaaaaaaaaaaaaa.g#####go#Kaaaq.e####",
  "##########################yI##########################gb#qaathg####mpe##glaaaaqaaaaaaaaaaaaaaaaaaatk#######p##aaaBh#####",
  "#######################Iv#wsuuuu#####################fhfo..bjk#######....cjaaaqaaaaaaaaaaaaaaaaaaab########ck#aaq.n#####",
  "######################xdsFxddddA#####################cc#i###fl######kj###peqaqaaaaaaaaaaaaaaaaaaaac#km#####pn#aB.p######",
  "#######################IddsdGww######################bfne####pf#####pn###fkjqaaaaaaaaaaaaaaaaaaaatg#b##k##fhfp..c#######",
  "########################EsddA########################ifn#####mp#####j#####ppqaaaaaaaaaaaaaaaaaaaaaqbb#ce#fjhh.be########",
  "#######################xx#Iddx######################fhj#######.bbbbip#####ehtrtaaraaaaaaaaaaaaaaaaaajbh#fj.hgf##########",
  "######################Idw#AEsv######################ecne#####oBtraaqb#####n.pcccccccnkNaaaaaaaaaaaaaathjh.lf############",
  "#####################udxCDdE########################ecfp#####braaaaazo####bze###########eNLaaaaaaaaaaaaz..##############",
  "#####################xdH#vdx########################ec#l####cqaaaaaatj###ftqe##############JnLaaaaaaaaaq.j##############",
  "##################v##udddddv########################fp#kibbbBaaaaaaaazceelrqge################egtaaaaaaz.p##############",
  "#################vdHv#Ddddx##########################i#olccpBaaaaaaaaa.jbja.hinf################flztaaa..k##############",
  "#################AdDdyD##############################gkee###btaaaaaaa.k##cqhe#mgg#################eihqz..###############",
  "##################DxdddsHv###########################fhok###ezaaaaaazp###g.f####fpe#################nh..b###############",
  "################CD##vAsddu############################c.l####ptaaaati####jc#######pm#################k..k###############",
  "################AdsAC##FA##############################itg###ghbbbbhk###pick#######if################l..################",
  "################HsdddGF#################################bapegi######lkkpi##flc#####el################h.p################",
  "##################EIdddy#################################ltzl#######ehcbaLK##nim####if##############o..m################",
  "###############CAwE#vFyx##################################kh.c#####khitaaaaL###l####nn##############l.b#################",
  "##############vsds##yD######################################l......hcaaaaaaaae#fc###ec#############f..e#################",
  "##############xdwC#uddv####################################ke###eb...qaaaaaaaaK#o###ehn############p.l##################",
  "##############Adv###Hdu###################################fk######i...zaaaaaaaaJ#n#mijkm##########m.h###################",
  "##############HdsDuuAdu###################################k#####cl#p...zaaaaaaaN#lph.o#ngm########l.o###################",
  "##############vsdddddy####################################nphp#n..m#p...zaaaaaaakjcee####kpgne###k.c####################",
  "################AsddyC####################################pj.p##ll###j...taaaaat.omif########enjhbg#####################",
  "#################vuu######################################coe########k....aartBhkolkp#########c.e#######################",
  "##########################################################mk######cn##j...qq.jc#faL#ck#######k.c########################",
  "###########################################################n#mf##p..##n....jo###iaaN#ogf####k.b#########################",
  "###########################################################nn..e#ohg###...l####kzaaaNf#emocg..##########################",
  "############################################################h..o#######i..m####iqaaaaaK#####ib##########################",
  "############################################################ok#####fjjep..####m.aaaaaaaaNKeo.l##########################",
  "#############################################################kp####k..kc.b####i.aaaaaaaaaaa..e##########################",
  "##############################################################cnk.jmlc#c.n###l..taaaaaaaat..k###########################",
  "###############################################################c..j####g.f#mh.il.raaaaaaz.je############################",
  "################################################################ejbm##kie#eh..i#e.ztqqqz.p##############################",
  "##################################################################kj.jc##k..ll.l#c......j###############################",
  "########################################################################c...p#c.ie......k###############################",
  "########################################################################j....f#p.......h################################",
  "#######################################################################k.....jcp.......k################################",
  "#######################################################################c..............b#################################",
  "#######################################################################c.............jf#################################",
  "#######################################################################e............jf##################################",
  "########################################################################h..........b####################################",
  "########################################################################oh......hc######################################",
  "#########################################################################fcccckm########################################",
  "########################################################################################################################",
  "########################################################################################################################",
  "#c...hbbp################################fmem############################kk###########ck################################",
  "fcemblggm####b.f##########################g.#############################bb###########.b##################nf############",
  "#nm#bbe###fn#c.###eo###om##f#o###n##m##f##c.#o##ckem##kkkf#fee##ceme#ok##kk###ee##kkkf.b###ee###eee###ecclbfce#kk##fee##",
  "#l##bbe#mijbpc.#o.phmpbghnpjpblccjbmiinhb#c.chl#..bhb#bj.echb.n#.j..b..b#bb#khbhc#bj.e.b#e.bhl#chbhj#n.pc.k#.c#bb#chb.n#",
  "mj##bbe#obbckc.#e.np#bbe.eebcefcnbb#o.ebb#c.ebc#.j#c.#b.k#.bchh#.b#bb#i.#bb#.jci.#b.k#.b#ijci.mmfml.#c.fm.n#.c#bb#.bcjh#",
  "#hp#beencbjm#c.#e.g##bbe.eebc#eppbb#e.ebb#c.ebc#.b#c.#bi#e.pccc#.c#bb#b.#bbe.bcccfbi##.b#.bcccfkilb.##ibbp##.c#bbe.bccc#",
  "#phhgciiebjoec.#e.gefbjkhcebgfehebioe.ebi#n.ebpf.i#lh#bb##.n#gp#.c#bb#b.#bb#.l#kl#bb##.b#il#kbf.b#g.#cheef##.c#jb#.l#gp#",
  "#mmccckmffigfkbl#eim#klenh#ljmfbichgg.iim#gbopg#.h..c#bb##c...k#.c#bb#b.#bb#k...g#bb##.b#e...p#j..i.#e....l#i.hib#c...k#",
  "##############f######ciblk########ffe.#######f##.bmm############################################em###jg##p.##ef#########",
  "####################fekpe###########obe#########.c###################################################lh...k#############",
  "########################################################################################################################",
  "########################################################################################################################",
};
