#define question_width 32
#define question_height 32
static char question_bits[] = {
   0x00, 0x00, 0x00, 0x00, 0x00, 0x00, 0x00, 0x00, 0x00, 0x00, 0x00, 0x00,
   0x00, 0xf0, 0x07, 0x00, 0x00, 0xfc, 0x0f, 0x00, 0x00, 0xfe, 0x1f, 0x00,
   0x00, 0x5f, 0x3f, 0x00, 0x00, 0x2f, 0x7c, 0x00, 0x00, 0x17, 0xb8, 0x00,
   0x00, 0x0f, 0x78, 0x00, 0x00, 0x05, 0xb8, 0x00, 0x00, 0x00, 0x7c, 0x00,
   0x00, 0x00, 0xbe, 0x00, 0x00, 0x00, 0x5f, 0x00, 0x00, 0x80, 0x2f, 0x00,
   0x00, 0x80, 0x17, 0x00, 0x00, 0xc0, 0x0b, 0x00, 0x00, 0xc0, 0x07, 0x00,
   0x00, 0xc0, 0x03, 0x00, 0x00, 0xc0, 0x05, 0x00, 0x00, 0xc0, 0x03, 0x00,
   0x00, 0xc0, 0x05, 0x00, 0x00, 0x80, 0x02, 0x00, 0x00, 0x00, 0x00, 0x00,
   0x00, 0xc0, 0x05, 0x00, 0x00, 0xc0, 0x03, 0x00, 0x00, 0xc0, 0x05, 0x00,
   0x00, 0x80, 0x02, 0x00, 0x00, 0x00, 0x00, 0x00, 0x00, 0x00, 0x00, 0x00,
   0x00, 0x00, 0x00, 0x00, 0x00, 0x00, 0x00, 0x00};
